<svg width="28" height="28" viewBox="0 0 28 28" fill="none" xmlns="http://www.w3.org/2000/svg">
<rect width="28" height="28" rx="14" fill="#F6C73B"/>
<path d="M6.42095 17.6003C6.55351 17.727 6.71098 17.8275 6.88433 17.8961C7.05768 17.9647 7.2435 18 7.43118 18C7.61885 18 7.80468 17.9647 7.97802 17.8961C8.15137 17.8275 8.30884 17.727 8.4414 17.6003L14.0012 12.2972L19.5611 17.6003C19.829 17.8559 20.1924 17.9994 20.5713 17.9994C20.9502 17.9994 21.3136 17.8559 21.5816 17.6003C21.8495 17.3447 22 16.9981 22 16.6367C22 16.2753 21.8495 15.9287 21.5816 15.6732L15.0043 9.3997C14.8717 9.273 14.7143 9.17247 14.5409 9.10389C14.3676 9.0353 14.1818 9 13.9941 9C13.8064 9 13.6206 9.0353 13.4472 9.10389C13.2739 9.17247 13.1164 9.273 12.9839 9.3997L6.40662 15.6732C5.8621 16.1925 5.8621 17.0673 6.42095 17.6003Z" fill="#1D1D1D"/>
</svg>
