<svg width="28" height="28" viewBox="0 0 28 28" fill="none" xmlns="http://www.w3.org/2000/svg">
<rect width="28" height="28" rx="14" fill="#F6C73B"/>
<path d="M21.5791 9.3997C21.4465 9.273 21.289 9.17248 21.1157 9.10389C20.9423 9.0353 20.7565 9 20.5688 9C20.3812 9 20.1953 9.0353 20.022 9.10389C19.8486 9.17248 19.6912 9.273 19.5586 9.3997L13.9988 14.7028L8.43891 9.3997C8.17098 9.14415 7.80759 9.00058 7.42868 9.00058C7.04977 9.00058 6.68638 9.14415 6.41845 9.3997C6.15052 9.65526 6 10.0019 6 10.3633C6 10.7247 6.15052 11.0713 6.41845 11.3268L12.9957 17.6003C13.1283 17.727 13.2857 17.8275 13.4591 17.8961C13.6324 17.9647 13.8182 18 14.0059 18C14.1936 18 14.3794 17.9647 14.5528 17.8961C14.7261 17.8275 14.8836 17.727 15.0161 17.6003L21.5934 11.3268C22.1379 10.8075 22.1379 9.93274 21.5791 9.3997Z" fill="#1D1D1D"/>
</svg>
